<svg width="16" height="16" viewBox="0 0 16 16" fill="none" xmlns="http://www.w3.org/2000/svg">
<path d="M4.33333 9H9V8.33333H4.33333V9ZM4.33333 7H11.6667V6.33333H4.33333V7ZM4.33333 5H11.6667V4.33333H4.33333V5ZM2 13.3847V3.07667C2 2.77 2.10289 2.514 2.30867 2.30867C2.514 2.10289 2.77 2 3.07667 2H12.9233C13.23 2 13.486 2.10289 13.6913 2.30867C13.8971 2.514 14 2.77 14 3.07667V10.2567C14 10.5633 13.8973 10.8196 13.692 11.0253C13.4862 11.2307 13.23 11.3333 12.9233 11.3333H4.05133L2 13.3847ZM3.76667 10.6667H12.9233C13.0256 10.6667 13.1196 10.624 13.2053 10.5387C13.2907 10.4529 13.3333 10.3589 13.3333 10.2567V3.07667C13.3333 2.97444 13.2907 2.88044 13.2053 2.79467C13.1196 2.70933 13.0256 2.66667 12.9233 2.66667H3.07667C2.97444 2.66667 2.88044 2.70933 2.79467 2.79467C2.70933 2.88044 2.66667 2.97444 2.66667 3.07667V11.7633L3.76667 10.6667Z" fill="#33A7ED" fill-opacity="0.72"/>
</svg>
