<svg width="16" height="16" viewBox="0 0 16 16" fill="none" xmlns="http://www.w3.org/2000/svg">
<g clip-path="url(#clip0_74_706)">
<path d="M9.15799 14.5654C10.2375 14.3746 11.2533 13.9207 12.1155 13.2438C12.9777 12.5669 13.6597 11.6878 14.1012 10.6844C14.5427 9.68107 14.73 8.58433 14.6465 7.49132C14.563 6.39831 14.2114 5.34273 13.6227 4.41803C12.974 3.39983 12.0611 2.57688 10.9813 2.03701C9.90147 1.49713 8.69533 1.2606 7.49159 1.35267C6.28786 1.44473 5.13172 1.86193 4.14657 2.55973C3.16142 3.25753 2.38425 4.20975 1.89799 5.31474C1.41174 6.41973 1.23467 7.63602 1.38567 8.83379C1.53667 10.0316 2.01009 11.1658 2.75538 12.1156C3.50067 13.0653 4.48987 13.7948 5.61738 14.2263C6.7449 14.6577 7.96841 14.7749 9.15733 14.5654H9.15799Z" stroke="#33A7ED" stroke-opacity="0.72"/>
<path d="M8 8V12M8 4.66667V4" stroke="#33A7ED" stroke-opacity="0.72" stroke-linecap="square"/>
</g>
<defs>
<clipPath id="clip0_74_706">
<rect width="16" height="16" fill="white"/>
</clipPath>
</defs>
</svg>
