<svg width="16" height="16" viewBox="0 0 16 16" fill="none" xmlns="http://www.w3.org/2000/svg">
<path d="M11.0476 5.71437L8.01678 2.66675L4.9524 5.71437M8.01678 2.68275V11.8096M5.71431 8.00008H4.1905C3.78636 8.00008 3.39877 8.16063 3.113 8.44639C2.82723 8.73216 2.66669 9.11975 2.66669 9.52389V12.5715C2.66669 12.9756 2.82723 13.3632 3.113 13.649C3.39877 13.9348 3.78636 14.0953 4.1905 14.0953H11.8095C12.2137 14.0953 12.6013 13.9348 12.887 13.649C13.1728 13.3632 13.3334 12.9756 13.3334 12.5715V9.52389C13.3334 9.11975 13.1728 8.73216 12.887 8.44639C12.6013 8.16063 12.2137 8.00008 11.8095 8.00008H10.2857" stroke="#33A7ED" stroke-opacity="0.72" stroke-linecap="round" stroke-linejoin="round"/>
</svg>
