<svg width="67" height="60" viewBox="0 0 67 60" fill="none" xmlns="http://www.w3.org/2000/svg">
<g id="Group 33710">
<g id="Group 33709">
<rect id="Rectangle 208" width="67" height="60" rx="6.4" fill="url(#paint0_linear_74_680)"/>
<path id="Path 1471" d="M34.0217 48.99H9.44132C9.19453 48.9994 8.94759 48.9811 8.70495 48.9355C8.60391 48.928 8.50528 48.9006 8.41505 48.8549C8.32482 48.8092 8.2446 48.7462 8.17928 48.6695C8.11395 48.5927 8.06485 48.5038 8.03463 48.408C8.00442 48.3122 7.99383 48.2114 8.00344 48.1114C8.00864 47.9091 8.09303 47.7166 8.23891 47.5749C8.38479 47.4332 8.58074 47.3533 8.78507 47.3521C9.18346 47.3223 9.58319 47.3123 9.98259 47.3222C11.1149 47.3222 11.4504 46.9897 11.4504 45.8679C11.4504 37.112 11.4504 28.3528 11.4504 19.5903C11.496 19.2174 11.585 18.8511 11.7159 18.4985C12.0915 18.5726 12.4579 18.6875 12.8082 18.841C16.0248 20.6428 19.2314 22.4693 22.4379 24.3009C23.2446 24.7525 23.6153 24.5442 23.6254 23.6309C23.6254 22.1815 23.6254 20.727 23.6254 19.2727C23.6254 18.4239 23.941 18.2453 24.6825 18.6672C27.8156 20.4343 30.9421 22.2045 34.0618 23.9782C34.2572 24.0924 34.4525 24.2116 34.6529 24.3159C35.3994 24.7229 35.7754 24.5144 35.7804 23.6756C35.7804 22.1865 35.7804 20.732 35.7804 19.2578C35.7804 18.419 36.1009 18.2353 36.8424 18.6522C40.0891 20.4822 43.3309 22.3188 46.5676 24.1619C46.7179 24.2414 46.863 24.3405 47.0183 24.4051C47.5494 24.6433 47.8752 24.4648 47.9253 23.9088C47.9253 23.6855 47.9253 23.457 47.9253 23.2287V7.59825C47.9253 6.21836 48.1506 6.00496 49.5635 6H55.2252C56.2773 6 56.5728 6.29275 56.5728 7.35497V45.2971C56.5728 45.6197 56.5728 45.9424 56.5728 46.2601C56.5656 46.3988 56.5879 46.5375 56.6383 46.6672C56.6886 46.7969 56.766 46.9147 56.8652 47.0129C56.9643 47.1112 57.0832 47.1877 57.2141 47.2376C57.345 47.2874 57.485 47.3095 57.6251 47.3024C57.9458 47.3024 58.2714 47.3024 58.592 47.3024C59.564 47.3024 60.005 47.5804 60 48.1661C59.9949 48.7518 59.5491 49 58.5621 49H33.9817L34.0217 48.99ZM30.5145 31.7215C30.5145 32.61 30.5145 33.4935 30.5145 34.382C30.5145 34.7394 30.6199 34.8784 31.0157 34.8784C32.7826 34.8784 34.5511 34.8784 36.3214 34.8784C36.7021 34.8784 36.8226 34.7245 36.8226 34.382C36.8226 32.6315 36.8226 30.8794 36.8226 29.1256C36.8226 28.793 36.7224 28.659 36.3666 28.659C34.5796 28.659 32.7926 28.659 31.0056 28.659C30.6449 28.659 30.5445 28.7979 30.5545 29.1553C30.5395 29.9941 30.5296 30.8578 30.5246 31.7215H30.5145ZM45.43 34.8734C46.3218 34.8734 47.2188 34.8734 48.1107 34.8734C48.4514 34.8734 48.5865 34.7592 48.5865 34.4167C48.5865 32.6464 48.5865 30.8744 48.5865 29.1007C48.5865 28.7533 48.4514 28.6491 48.1107 28.654C46.3404 28.654 44.5716 28.654 42.8047 28.654C42.4439 28.654 42.3038 28.7633 42.3038 29.1504C42.3038 30.9009 42.3038 32.6531 42.3038 34.4069C42.3038 34.7792 42.4339 34.9033 42.8047 34.9033C43.6915 34.8636 44.5683 34.8734 45.4401 34.8734H45.43ZM33.6208 42.9592C34.4776 42.9592 35.3343 42.9592 36.1911 42.9592C36.627 42.9592 36.7924 42.8451 36.7874 42.3934C36.7874 40.6959 36.7874 38.9933 36.7874 37.2957C36.7874 36.8887 36.6821 36.7298 36.2412 36.7348C34.5077 36.7547 32.774 36.7547 31.0405 36.7348C30.6547 36.7348 30.5046 36.8341 30.5096 37.2312C30.5296 38.9685 30.5296 40.7041 30.5096 42.4381C30.5096 42.8501 30.6649 42.9344 31.0457 42.9344C31.9124 42.9443 32.7591 42.9592 33.6309 42.9592H33.6208ZM45.4401 42.9592C46.2968 42.9592 47.1536 42.9592 48.0104 42.9592C48.4112 42.9592 48.5915 42.8699 48.5865 42.4281C48.5865 40.7107 48.5865 38.9933 48.5865 37.2809C48.5865 36.9036 48.4914 36.7348 48.0856 36.7398C46.332 36.7398 44.5783 36.7398 42.8298 36.7398C42.479 36.7398 42.3288 36.8292 42.3288 37.2362C42.3288 38.99 42.3288 40.7438 42.3288 42.4976C42.3288 42.8749 42.474 42.994 42.8298 42.994C43.6965 42.9444 44.5734 42.9592 45.4502 42.9592H45.4401ZM24.958 31.7613C24.958 30.8927 24.958 30.0289 24.958 29.1603C24.958 28.7533 24.818 28.6639 24.4272 28.6639C22.697 28.6639 20.9648 28.6639 19.2313 28.6639C18.8405 28.6639 18.7003 28.7731 18.7053 29.1603C18.7053 30.8976 18.7053 32.6349 18.7053 34.3672C18.7053 34.7147 18.7954 34.8636 19.2062 34.8636C20.9748 34.8636 22.7488 34.8636 24.5174 34.8636C24.8581 34.8636 24.9881 34.7543 24.9831 34.4069C24.9531 33.5333 24.9681 32.6498 24.9681 31.7613H24.958ZM21.8869 42.9592C22.7637 42.9592 23.6354 42.9592 24.5122 42.9592C24.8128 42.9592 24.9632 42.8797 24.9632 42.5472C24.9632 40.7603 24.9632 38.97 24.9632 37.1765C24.9632 36.8638 24.8579 36.7448 24.5373 36.7448C22.7486 36.7448 20.96 36.7448 19.1713 36.7448C18.8206 36.7448 18.7154 36.8788 18.7154 37.2114C18.7154 38.9635 18.7154 40.7156 18.7154 42.4678C18.7154 42.8401 18.8405 42.9642 19.2163 42.9642C20.1081 42.9443 21.0051 42.9542 21.897 42.9592H21.8869Z" fill="#33A7ED"/>
</g>
</g>
<defs>
<linearGradient id="paint0_linear_74_680" x1="33.5" y1="0" x2="33.5" y2="60" gradientUnits="userSpaceOnUse">
<stop stop-color="white" stop-opacity="0"/>
<stop offset="1" stop-color="white"/>
</linearGradient>
</defs>
</svg>
