<svg width="21" height="21" viewBox="0 0 21 21" fill="none" xmlns="http://www.w3.org/2000/svg">
<path d="M10.1212 20.2424C15.711 20.2424 20.2424 15.711 20.2424 10.1212C20.2424 4.53142 15.711 0 10.1212 0C4.53142 0 0 4.53142 0 10.1212C0 15.711 4.53142 20.2424 10.1212 20.2424Z" fill="#D5EFEE"/>
<path d="M5.00044 7.19824L6.07117 8.17049C7.18733 9.19069 8.30432 10.2104 9.42217 11.2298C9.61237 11.4022 9.85989 11.4977 10.1166 11.4977C10.3733 11.4977 10.6208 11.4022 10.811 11.2298C11.8135 10.3241 12.8127 9.41502 13.8085 8.50256L15.1457 7.28536C15.1709 7.2639 15.1986 7.24623 15.2441 7.21088C15.2441 7.27654 15.2568 7.3245 15.258 7.37121C15.258 9.12879 15.258 10.8876 15.258 12.6465C15.2708 13.0105 15.152 13.367 14.9233 13.6506C14.6947 13.9342 14.3715 14.1259 14.0131 14.1907C13.8923 14.2122 13.7696 14.2211 13.6469 14.2172C11.2959 14.2172 8.94611 14.2071 6.59636 14.2172C6.38448 14.2216 6.17394 14.1833 5.97715 14.1047C5.78036 14.026 5.6014 13.9085 5.45095 13.7592C5.30051 13.61 5.1816 13.432 5.10139 13.2358C5.02118 13.0397 4.98126 12.8293 4.98402 12.6174C4.99917 10.8699 4.98402 9.12373 4.98402 7.37626C4.98907 7.34091 4.99538 7.29294 5.00044 7.19824Z" fill="#26BDEB"/>
<path d="M10.124 10.4546L5.45239 6.19068C5.63123 6.06122 5.8494 5.99785 6.06976 6.01139H14.1607C14.3855 5.99659 14.6085 6.05993 14.792 6.19068L10.124 10.4546Z" fill="#26BDEB"/>
</svg>
