<svg width="21" height="21" viewBox="0 0 21 21" fill="none" xmlns="http://www.w3.org/2000/svg">
<path d="M10.1212 20.2424C15.711 20.2424 20.2424 15.711 20.2424 10.1212C20.2424 4.53142 15.711 0 10.1212 0C4.53142 0 0 4.53142 0 10.1212C0 15.711 4.53142 20.2424 10.1212 20.2424Z" fill="#D5EFEE"/>
<path d="M11.1651 12.543C11.4013 12.2413 11.6374 11.9345 11.8785 11.6327C11.9416 11.5471 12.0184 11.4724 12.1058 11.4117C12.2059 11.3427 12.3233 11.3028 12.4447 11.2963C12.5662 11.2899 12.6871 11.3172 12.794 11.3751C13.5112 11.7413 14.2295 12.1074 14.9404 12.4824C15.022 12.5257 15.0938 12.5854 15.1512 12.6577C15.2087 12.73 15.2506 12.8134 15.2743 12.9027C15.298 12.9919 15.303 13.0851 15.289 13.1764C15.275 13.2677 15.2423 13.3552 15.1929 13.4332C14.9 13.9118 14.5995 14.3852 14.2863 14.8499C14.1831 15.0056 14.0396 15.1305 13.8711 15.2112C13.7026 15.2919 13.5153 15.3254 13.3293 15.3082C12.1924 15.2435 11.089 14.8991 10.1171 14.3057C8.60143 13.4348 7.30799 12.2247 6.33813 10.7703C5.71732 9.88999 5.27747 8.89519 5.04398 7.84358C4.98378 7.52136 4.94741 7.19512 4.93532 6.86755C4.92102 6.69066 4.95495 6.51321 5.03343 6.35403C5.1119 6.19486 5.23204 6.05988 5.38106 5.96351C5.83729 5.65038 6.30022 5.34524 6.76992 5.0481C6.85303 4.99554 6.94641 4.96133 7.04381 4.94776C7.14121 4.93419 7.24041 4.9416 7.33473 4.96945C7.42904 4.99731 7.51633 5.04499 7.59073 5.10929C7.66514 5.17359 7.72491 5.25301 7.76613 5.34229C8.05149 5.8928 8.3331 6.44456 8.61592 6.99633C8.68789 7.13648 8.76115 7.27665 8.83186 7.41806C8.91551 7.56642 8.94121 7.74047 8.90415 7.90669C8.86708 8.07292 8.76978 8.21958 8.63103 8.31833C8.34189 8.54939 8.04776 8.77538 7.74725 9.00139C7.68791 9.04685 7.67024 9.08221 7.71065 9.15545C8.46661 10.5923 9.64017 11.7664 11.0767 12.5229L11.1285 12.5494L11.1651 12.543Z" fill="#26BDEB"/>
</svg>
