<svg width="64" height="64" viewBox="0 0 64 64" fill="none" xmlns="http://www.w3.org/2000/svg">
<g id="vuesax/linear/building">
<g id="building">
<path id="Vector" d="M33.3333 58.667H10.8799C7.7866 58.667 5.25327 56.187 5.25327 53.147V13.5737C5.25327 6.58703 10.4533 3.41369 16.8266 6.53369L28.6666 12.347C31.2266 13.6004 33.3333 16.9337 33.3333 19.7604V58.667Z" stroke="#FF6D17" stroke-width="2" stroke-linecap="round" stroke-linejoin="round"/>
<path id="Vector_2" d="M58.5866 40.1602V50.2402C58.5866 56.0002 55.9199 58.6669 50.1599 58.6669H33.3333V27.7869L34.5866 28.0535L46.5866 30.7469L51.9999 31.9469C55.5199 32.7202 58.3999 34.5335 58.5599 39.6535C58.5866 39.8135 58.5866 39.9735 58.5866 40.1602Z" stroke="#FF6D17" stroke-width="2" stroke-linecap="round" stroke-linejoin="round"/>
<path id="Vector_3" d="M14.6666 24.0002H23.9199" stroke="#FF6D17" stroke-width="2" stroke-linecap="round" stroke-linejoin="round"/>
<path id="Vector_4" d="M14.6666 34.667H23.9199" stroke="#FF6D17" stroke-width="2" stroke-linecap="round" stroke-linejoin="round"/>
<path id="Vector_5" d="M46.5866 30.747V39.3337C46.5866 42.6404 43.8932 45.3337 40.5866 45.3337C37.2799 45.3337 34.5866 42.6404 34.5866 39.3337V28.0537L46.5866 30.747Z" stroke="#FF6D17" stroke-width="2" stroke-linecap="round" stroke-linejoin="round"/>
<path id="Vector_6" d="M58.5599 39.6535C58.3999 42.8002 55.7866 45.3335 52.5866 45.3335C49.2799 45.3335 46.5866 42.6402 46.5866 39.3335V30.7468L51.9999 31.9468C55.5199 32.7202 58.3999 34.5335 58.5599 39.6535Z" stroke="#FF6D17" stroke-width="2" stroke-linecap="round" stroke-linejoin="round"/>
</g>
</g>
</svg>
