<svg width="64" height="64" viewBox="0 0 64 64" fill="none" xmlns="http://www.w3.org/2000/svg">
<g id="arcticons:invest">
<path id="Vector" d="M7.33865 55.0013H56.6667V37.5373M9.91199 50.2506L29.8987 30.2667L36.7093 37.0773L56.6667 17.12V31.8613M41.812 17.1187H56.6667" stroke="#4B6FFF" stroke-width="2" stroke-linecap="round" stroke-linejoin="round"/>
<path id="Vector_2" d="M21.932 16.5359H10.2413C8.6353 16.5359 7.33334 17.8378 7.33334 19.4439V28.7719C7.33334 30.3779 8.6353 31.6799 10.2413 31.6799H21.932C23.5381 31.6799 24.84 30.3779 24.84 28.7719V19.4439C24.84 17.8378 23.5381 16.5359 21.932 16.5359Z" stroke="#4B6FFF" stroke-linecap="round" stroke-linejoin="round"/>
<path id="Vector_3" d="M11.416 21.584H24.8387M7.33334 26.632H20.756" stroke="#4B6FFF" stroke-linecap="round" stroke-linejoin="round"/>
<path id="Vector_4" d="M16.0747 13.9054C17.4296 13.9054 18.528 12.8071 18.528 11.4521C18.528 10.0972 17.4296 8.99878 16.0747 8.99878C14.7197 8.99878 13.6213 10.0972 13.6213 11.4521C13.6213 12.8071 14.7197 13.9054 16.0747 13.9054Z" stroke="#4B6FFF" stroke-linecap="round" stroke-linejoin="round"/>
</g>
</svg>
