<svg width="49" height="21" viewBox="0 0 49 21" fill="none" xmlns="http://www.w3.org/2000/svg">
<g id="Group 33748">
<g id="Group 33746">
<g id="Group 33744">
<g id="Group 33737">
<path id="Ellipse 104" d="M10.1212 20.2424C15.711 20.2424 20.2424 15.711 20.2424 10.1212C20.2424 4.53142 15.711 0 10.1212 0C4.53142 0 0 4.53142 0 10.1212C0 15.711 4.53142 20.2424 10.1212 20.2424Z" fill="#D5EFEE"/>
<path id="Path 1474" d="M5.00044 7.19824L6.07117 8.17049C7.18733 9.19069 8.30432 10.2104 9.42217 11.2298C9.61237 11.4022 9.85989 11.4977 10.1166 11.4977C10.3733 11.4977 10.6208 11.4022 10.811 11.2298C11.8135 10.3241 12.8127 9.41502 13.8085 8.50256L15.1457 7.28536C15.1709 7.2639 15.1986 7.24623 15.2441 7.21088C15.2441 7.27654 15.2568 7.3245 15.258 7.37121C15.258 9.12879 15.258 10.8876 15.258 12.6465C15.2708 13.0105 15.152 13.367 14.9233 13.6506C14.6947 13.9342 14.3715 14.1259 14.0131 14.1907C13.8923 14.2122 13.7696 14.2211 13.6469 14.2172C11.2959 14.2172 8.94611 14.2071 6.59636 14.2172C6.38448 14.2216 6.17394 14.1833 5.97715 14.1047C5.78036 14.026 5.6014 13.9085 5.45095 13.7592C5.30051 13.61 5.1816 13.432 5.10139 13.2358C5.02118 13.0397 4.98126 12.8293 4.98402 12.6174C4.99917 10.8699 4.98402 9.12373 4.98402 7.37626C4.98907 7.34091 4.99538 7.29294 5.00044 7.19824Z" fill="#26BDEB"/>
<path id="Path 1475" d="M10.124 10.4546L5.45239 6.19068C5.63123 6.06122 5.8494 5.99785 6.06976 6.01139H14.1607C14.3855 5.99659 14.6085 6.05993 14.792 6.19068L10.124 10.4546Z" fill="#26BDEB"/>
</g>
<g id="Group 33738">
<path id="Ellipse 103" d="M38.1212 20.2424C43.711 20.2424 48.2424 15.711 48.2424 10.1212C48.2424 4.53142 43.711 0 38.1212 0C32.5314 0 28 4.53142 28 10.1212C28 15.711 32.5314 20.2424 38.1212 20.2424Z" fill="#D5EFEE"/>
<g id="Group 1162">
<path id="Path 1473" d="M39.1651 12.543C39.4013 12.2413 39.6374 11.9345 39.8785 11.6327C39.9416 11.5471 40.0184 11.4724 40.1058 11.4117C40.2059 11.3427 40.3233 11.3028 40.4447 11.2963C40.5662 11.2899 40.6871 11.3172 40.794 11.3751C41.5112 11.7413 42.2295 12.1074 42.9404 12.4824C43.022 12.5257 43.0938 12.5854 43.1512 12.6577C43.2087 12.73 43.2506 12.8134 43.2743 12.9027C43.298 12.9919 43.303 13.0851 43.289 13.1764C43.275 13.2677 43.2423 13.3552 43.1929 13.4332C42.9 13.9118 42.5995 14.3852 42.2863 14.8499C42.1831 15.0056 42.0396 15.1305 41.8711 15.2112C41.7026 15.2919 41.5153 15.3254 41.3293 15.3082C40.1924 15.2435 39.089 14.8991 38.1171 14.3057C36.6014 13.4348 35.308 12.2247 34.3381 10.7703C33.7173 9.88999 33.2775 8.89519 33.044 7.84358C32.9838 7.52136 32.9474 7.19512 32.9353 6.86755C32.921 6.69066 32.9549 6.51321 33.0334 6.35403C33.1119 6.19486 33.232 6.05988 33.3811 5.96351C33.8373 5.65038 34.3002 5.34524 34.7699 5.0481C34.853 4.99554 34.9464 4.96133 35.0438 4.94776C35.1412 4.93419 35.2404 4.9416 35.3347 4.96945C35.429 4.99731 35.5163 5.04499 35.5907 5.10929C35.6651 5.17359 35.7249 5.25301 35.7661 5.34229C36.0515 5.8928 36.3331 6.44456 36.6159 6.99633C36.6879 7.13648 36.7612 7.27665 36.8319 7.41806C36.9155 7.56642 36.9412 7.74047 36.9041 7.90669C36.8671 8.07292 36.7698 8.21958 36.631 8.31833C36.3419 8.54939 36.0478 8.77538 35.7473 9.00139C35.6879 9.04685 35.6702 9.08221 35.7106 9.15545C36.4666 10.5923 37.6402 11.7664 39.0767 12.5229L39.1285 12.5494L39.1651 12.543Z" fill="#26BDEB"/>
</g>
</g>
</g>
</g>
</g>
</svg>
