<svg width="64" height="64" viewBox="0 0 64 64" fill="none" xmlns="http://www.w3.org/2000/svg">
<g id="vuesax/linear/home-hashtag">
<g id="home-hashtag">
<path id="Vector" d="M24.0533 7.57344L9.67998 18.7734C7.27998 20.6401 5.33331 24.6134 5.33331 27.6268V47.3868C5.33331 53.5734 10.3733 58.6401 16.56 58.6401H47.44C53.6266 58.6401 58.6666 53.5734 58.6666 47.4134V28.0001C58.6666 24.7734 56.5066 20.6401 53.8666 18.8001L37.3866 7.25344C33.6533 4.64011 27.6533 4.77344 24.0533 7.57344Z" stroke="#FCAB10" stroke-width="2" stroke-linecap="round" stroke-linejoin="round"/>
<path id="Vector_2" d="M28 48H36C40.4 48 44 44.4 44 40V32C44 27.6 40.4 24 36 24H28C23.6 24 20 27.6 20 32V40C20 44.4 23.6 48 28 48Z" stroke="#FCAB10" stroke-width="2" stroke-linecap="round" stroke-linejoin="round"/>
<path id="Vector_3" d="M32 24V48" stroke="#FCAB10" stroke-width="2" stroke-linecap="round" stroke-linejoin="round"/>
<path id="Vector_4" d="M20 36H44" stroke="#FCAB10" stroke-width="2" stroke-linecap="round" stroke-linejoin="round"/>
</g>
</g>
</svg>
