<svg width="46" height="20" viewBox="0 0 46 20" fill="none" xmlns="http://www.w3.org/2000/svg">
<path d="M44.4499 8.27504L44.4492 8.23652C44.4368 7.48646 44.4064 6.85719 44.3353 6.32569C44.2111 5.40433 43.9605 4.73654 43.4454 4.22078C43.4454 4.22077 43.4454 4.22075 43.4454 4.22074M44.4499 8.27504L41.4075 2.83575C42.3842 2.96742 43.175 3.24409 43.7992 3.86742L43.4454 4.22074M44.4499 8.27504L44.4564 8.313M44.4499 8.27504L44.4564 8.313M43.4454 4.22074C42.9297 3.70599 42.262 3.4555 41.3409 3.3313L43.4454 4.22074ZM44.4564 8.313C44.4586 8.32601 44.4589 8.33928 44.4571 8.35235L44.4521 8.38906M44.4564 8.313L44.4521 8.38906M44.4521 8.38906L44.4525 8.4261M44.4521 8.38906L44.4525 8.4261M44.4525 8.4261C44.4583 8.89409 44.4583 9.40083 44.4583 9.95325V9.99992C44.4583 10.0331 44.4452 10.0649 44.4217 10.0883C44.3983 10.1117 44.3665 10.1249 44.3333 10.1249C44.3002 10.1249 44.2684 10.1117 44.245 10.0883C44.2215 10.0649 44.2083 10.0331 44.2083 9.99992V9.99865C44.2083 9.62777 44.2083 9.28017 44.2067 8.95567L44.2041 8.45825M44.4525 8.4261L44.2041 8.45825M44.2041 8.45825H43.7067M44.2041 8.45825H43.7067M43.7067 8.45825H28.2933H27.7959M43.7067 8.45825H27.7959M27.7959 8.45825L27.7933 8.95567M27.7959 8.45825L27.7933 8.95567M27.7933 8.95567C27.7917 9.28032 27.7917 9.62809 27.7917 9.99917V9.99992C27.7917 11.5749 27.7923 12.7438 27.9128 13.6414L27.9128 13.6415M27.7933 8.95567L27.9128 13.6415M27.9128 13.6415C28.0328 14.5348 28.2707 15.1411 28.7315 15.6018M27.9128 13.6415L28.7315 15.6018M27.5479 8.38807L27.5475 8.4261C27.5417 8.89409 27.5417 9.40083 27.5417 9.95325V10.0466C27.5417 11.5913 27.5427 12.7648 27.6647 13.674L27.5479 8.38807ZM27.5479 8.38807L27.5427 8.35041M27.5479 8.38807L27.5427 8.35041M27.5427 8.35041C27.5408 8.33721 27.541 8.3238 27.5432 8.31066L27.5493 8.27411M27.5427 8.35041L27.5493 8.27411M27.5493 8.27411L27.5499 8.23707M27.5493 8.27411L27.5499 8.23707M27.5499 8.23707C27.5632 7.48654 27.5937 6.85719 27.6647 6.32557M27.5499 8.23707L27.6647 6.32557M27.796 8.20825L27.8136 7.69123C27.8306 7.19436 27.8597 6.75342 27.9128 6.35925L27.796 8.20825ZM27.796 8.20825H28.3133M27.796 8.20825H28.3133M28.3133 8.20825H43.6867H44.199M28.3133 8.20825H44.199M44.199 8.20825L44.1865 7.69606M44.199 8.20825L44.1865 7.69606M44.1865 7.69606C44.1757 7.25048 44.1427 6.8057 44.0879 6.36337L44.0879 6.36337M44.1865 7.69606L44.0879 6.36337M44.0879 6.36337L44.0872 6.35835M44.0879 6.36337L44.0872 6.35835M44.0872 6.35835C43.9672 5.46499 43.7293 4.85874 43.2686 4.39803M44.0872 6.35835L43.2686 4.39803M30.6918 3.57937L30.6919 3.57936C31.5903 3.45886 32.7583 3.45825 34.3333 3.45825H37.6667C39.2416 3.45825 40.4105 3.45886 41.3073 3.57936L30.6918 3.57937ZM30.6918 3.57937C29.7984 3.69937 29.1922 3.93732 28.7315 4.39803M30.6918 3.57937L28.7315 4.39803M28.7315 15.6018C29.1922 16.0626 29.7985 16.3005 30.6927 16.4205M28.7315 15.6018L30.6927 16.4205M30.6927 16.4205C31.5903 16.541 32.7583 16.5416 34.3333 16.5416M30.6927 16.4205L34.3333 16.5416M34.3333 16.5416H37.6667M34.3333 16.5416H37.6667M37.6667 16.5416C37.6998 16.5416 37.7316 16.5548 37.7551 16.5782M37.6667 16.5416L37.7551 16.5782M37.7551 16.5782C37.7785 16.6016 37.7917 16.6334 37.7917 16.6666M37.7551 16.5782L37.7917 16.6666M37.7917 16.6666C37.7917 16.6997 37.7785 16.7315 37.7551 16.755M37.7917 16.6666L37.7551 16.755M37.7551 16.755C37.7316 16.7784 37.6998 16.7916 37.6667 16.7916M37.7551 16.755L37.6667 16.7916M37.6667 16.7916H34.2867M37.6667 16.7916H34.2867M34.2867 16.7916C32.7418 16.7916 31.5676 16.7906 30.6593 16.6686M34.2867 16.7916L30.6593 16.6686M30.6593 16.6686C29.738 16.5444 29.0703 16.2939 28.5545 15.779C28.0395 15.2632 27.789 14.5955 27.6647 13.6742L30.6593 16.6686ZM27.6647 6.32557C27.789 5.40438 28.0395 4.73668 28.5544 4.22097C29.0701 3.70607 29.7378 3.45553 30.659 3.33131L27.6647 6.32557ZM43.2686 4.39803C42.8078 3.93729 42.2015 3.69937 41.3074 3.57937L43.2686 4.39803ZM28.7315 4.39803C28.2708 4.85874 28.0328 5.46495 27.9128 6.35894L28.7315 4.39803ZM37.7133 3.20825C39.2582 3.20825 40.4324 3.20929 41.3407 3.33127H30.6593C31.5685 3.20928 32.7419 3.20825 34.2867 3.20825H37.7133ZM43.5881 13.2451L43.5944 13.2514L43.6008 13.2574C43.6131 13.2688 43.6229 13.2826 43.6298 13.298C43.6366 13.3133 43.6403 13.3299 43.6406 13.3466C43.6409 13.3634 43.6378 13.3801 43.6315 13.3957C43.6252 13.4112 43.6159 13.4254 43.604 13.4372C43.5921 13.4491 43.578 13.4585 43.5624 13.4647C43.5468 13.471 43.5302 13.4741 43.5134 13.4738C43.4966 13.4735 43.4801 13.4699 43.4647 13.463C43.4494 13.4562 43.4356 13.4463 43.4241 13.4341L43.4181 13.4276L43.4119 13.4214L42.8119 12.8214L41.9583 11.9678V13.1749V16.6666C41.9583 16.6997 41.9452 16.7315 41.9217 16.755C41.8983 16.7784 41.8665 16.7916 41.8333 16.7916C41.8002 16.7916 41.7684 16.7784 41.745 16.755C41.7215 16.7315 41.7083 16.6997 41.7083 16.6666V13.1749V11.9678L40.8548 12.8214L40.2548 13.4214L40.2486 13.4276L40.2425 13.4341C40.2311 13.4463 40.2173 13.4562 40.202 13.463C40.1866 13.4699 40.1701 13.4735 40.1533 13.4738C40.1365 13.4741 40.1198 13.471 40.1043 13.4647C40.0887 13.4585 40.0746 13.4491 40.0627 13.4372C40.0508 13.4254 40.0415 13.4112 40.0352 13.3957C40.0289 13.3801 40.0258 13.3634 40.0261 13.3466C40.0264 13.3299 40.0301 13.3133 40.0369 13.298C40.0437 13.2826 40.0536 13.2688 40.0659 13.2574L40.0723 13.2514L40.0786 13.2451L41.745 11.5787C41.7684 11.5553 41.8002 11.5421 41.8333 11.5421C41.8665 11.5421 41.8982 11.5553 41.9217 11.5787L43.5881 13.2451ZM30.875 13.3333C30.875 13.3001 30.8882 13.2683 30.9116 13.2449C30.9351 13.2214 30.9669 13.2083 31 13.2083H34.3333C34.3665 13.2083 34.3983 13.2214 34.4217 13.2449C34.4452 13.2683 34.4583 13.3001 34.4583 13.3333C34.4583 13.3664 34.4452 13.3982 34.4217 13.4216C34.3983 13.4451 34.3665 13.4583 34.3333 13.4583H31C30.9669 13.4583 30.9351 13.4451 30.9116 13.4216C30.8882 13.3982 30.875 13.3664 30.875 13.3333ZM36.2917 13.3333C36.2917 13.3001 36.3048 13.2683 36.3283 13.2449C36.3517 13.2214 36.3835 13.2083 36.4167 13.2083H36.8333C36.8665 13.2083 36.8983 13.2214 36.9217 13.2449C36.9452 13.2683 36.9583 13.3001 36.9583 13.3333C36.9583 13.3664 36.9452 13.3982 36.9217 13.4216C36.8983 13.4451 36.8665 13.4583 36.8333 13.4583H36.4167C36.3835 13.4583 36.3517 13.4451 36.3283 13.4216C36.3048 13.3982 36.2917 13.3664 36.2917 13.3333Z" stroke="#6A7380"/>
<path d="M6.15417 17.7084V2.29175M17.7083 8.25425V11.7459H13.4667C12.5 11.7459 11.7208 10.9626 11.7208 10.0001C11.7208 9.51675 11.9167 9.08342 12.2333 8.76675C12.5458 8.45008 12.9833 8.25425 13.4667 8.25425H17.7083Z" stroke="#6A7380" stroke-linecap="round" stroke-linejoin="round"/>
<path d="M17.7083 2.88758V17.1126C17.7083 17.4417 17.4416 17.7084 17.1125 17.7084H2.88746C2.55829 17.7084 2.29163 17.4417 2.29163 17.1126V2.88758C2.29163 2.55841 2.55829 2.29175 2.88746 2.29175H17.1125C17.4416 2.29175 17.7083 2.55841 17.7083 2.88758Z" stroke="#6A7380" stroke-linecap="round" stroke-linejoin="round"/>
</svg>
