<svg width="63" height="16" viewBox="0 0 63 16" fill="none" xmlns="http://www.w3.org/2000/svg">
<g id="Group 33707">
<g id="Group 33703">
<g id="Group 33706">
<path id="Path 1477" d="M26.0213 3.5271L27.3965 4.77588C28.8302 6.08626 30.2649 7.39606 31.7007 8.70536C31.945 8.92678 32.2629 9.04943 32.5926 9.04943C32.9223 9.04943 33.2403 8.92678 33.4846 8.70536C34.7722 7.54202 36.0556 6.3744 37.3347 5.20241L39.0521 3.639C39.0846 3.61143 39.1201 3.58874 39.1785 3.54333C39.1785 3.62766 39.1948 3.68926 39.1964 3.74927C39.1964 6.00675 39.1964 8.26588 39.1964 10.525C39.2129 10.9926 39.0602 11.4504 38.7666 11.8147C38.4729 12.179 38.0578 12.4252 37.5974 12.5084C37.4422 12.536 37.2846 12.5474 37.1271 12.5424C34.1074 12.5424 31.0892 12.5295 28.0711 12.5424C27.799 12.5481 27.5285 12.499 27.2758 12.3979C27.023 12.2969 26.7932 12.146 26.5999 11.9543C26.4067 11.7625 26.254 11.5339 26.1509 11.282C26.0479 11.03 25.9966 10.7599 26.0002 10.4877C26.0196 8.24316 26.0002 6.00026 26.0002 3.75575C26.0067 3.71034 26.0148 3.64873 26.0213 3.5271Z" fill="#33A7ED"/>
<path id="Path 1478" d="M32.6021 7.70969L26.6017 2.233C26.8314 2.06672 27.1116 1.98533 27.3946 2.00271H37.7869C38.0757 1.98371 38.3621 2.06506 38.5978 2.233L32.6021 7.70969Z" fill="#33A7ED"/>
</g>
</g>
<g id="Group 33705">
<path id="Path 1472" d="M57.345 0.000296843C58.6042 -0.00312551 59.8208 0.456748 60.7628 1.29234C61.7049 2.12793 62.3067 3.28081 62.4536 4.53145C62.5318 5.38981 62.4419 6.25521 62.1892 7.07925C61.7596 8.49747 61.1607 9.85875 60.4053 11.1336C59.7019 12.373 58.9276 13.5708 58.0862 14.721C58.0124 14.8556 57.9037 14.9679 57.7716 15.0461C57.6395 15.1244 57.4888 15.1657 57.3353 15.1657C57.1818 15.1657 57.0311 15.1244 56.899 15.0461C56.7669 14.9679 56.6582 14.8556 56.5844 14.721C55.2978 12.9731 54.1855 11.1035 53.2631 9.13886C52.8004 8.17031 52.473 7.14279 52.2901 6.0851C52.1093 5.15016 52.1947 4.18325 52.5365 3.29444C52.8782 2.40563 53.4626 1.63063 54.2232 1.05765C55.1135 0.36084 56.2145 -0.0120458 57.345 0.000296843ZM59.8685 5.12015C59.8724 4.62722 59.7298 4.14425 59.459 3.73235C59.1882 3.32044 58.8014 2.9981 58.3473 2.8062C57.8933 2.6143 57.3924 2.56145 56.9083 2.65431C56.4242 2.74717 55.9785 2.98161 55.6276 3.3279C55.2768 3.67418 55.0367 4.11677 54.9375 4.59965C54.8384 5.08252 54.8846 5.58393 55.0706 6.04046C55.2565 6.49698 55.5738 6.88808 55.9821 7.16423C56.3904 7.44037 56.8716 7.58916 57.3645 7.59174C58.0229 7.59347 58.6553 7.33442 59.1233 6.87128C59.5913 6.40814 59.8568 5.77856 59.862 5.12015H59.8685Z" fill="#33A7ED"/>
</g>
<g id="Group 33704">
<g id="Group 1163">
<path id="Path 1473" d="M8.00588 9.76411C8.30915 9.37651 8.61242 8.98246 8.92218 8.59486C9.00321 8.48485 9.10183 8.38893 9.21408 8.31102C9.34273 8.22239 9.49342 8.17109 9.64942 8.16279C9.80541 8.15449 9.96069 8.18953 10.098 8.264C11.0192 8.73431 11.9419 9.2046 12.8549 9.68626C12.9597 9.74183 13.0519 9.81847 13.1257 9.91135C13.1995 10.0042 13.2534 10.1114 13.2838 10.226C13.3143 10.3407 13.3207 10.4604 13.3027 10.5777C13.2847 10.6949 13.2427 10.8072 13.1793 10.9075C12.803 11.5221 12.417 12.1302 12.0148 12.7271C11.8822 12.9271 11.698 13.0875 11.4815 13.1911C11.2651 13.2948 11.0245 13.3378 10.7856 13.3158C9.32529 13.2326 7.90811 12.7903 6.6598 12.0281C4.71296 10.9095 3.05163 9.35524 1.80591 7.48718C1.00853 6.35643 0.443573 5.07868 0.143669 3.72795C0.0663409 3.31409 0.0196268 2.89506 0.00410131 2.47432C-0.0142691 2.24711 0.0293082 2.01919 0.130108 1.81474C0.230908 1.61028 0.385209 1.43692 0.576626 1.31314C1.16262 0.910941 1.75722 0.519007 2.36052 0.137353C2.46727 0.0698383 2.58721 0.0259008 2.71231 0.00847594C2.83741 -0.0089489 2.96483 0.000566546 3.08597 0.03634C3.20711 0.0721134 3.31923 0.133356 3.4148 0.215947C3.51037 0.298538 3.58714 0.400549 3.64009 0.515225C4.0066 1.22231 4.36831 1.93101 4.73159 2.63972C4.82403 2.81974 4.91812 2.99978 5.00894 3.18141C5.11638 3.37196 5.1494 3.59552 5.10179 3.80902C5.05417 4.02253 4.92921 4.2109 4.75099 4.33775C4.3796 4.63453 4.00181 4.9248 3.61584 5.21509C3.53961 5.27348 3.51692 5.3189 3.56882 5.41296C4.53979 7.25852 6.04716 8.76651 7.89235 9.73817L7.95887 9.77222L8.00588 9.76411Z" fill="#33A7ED"/>
</g>
</g>
</g>
</svg>
