<svg width="22" height="21" viewBox="0 0 22 21" fill="none" xmlns="http://www.w3.org/2000/svg">
<g id="Search">
<g id="Search_2">
<path id="Vector" d="M4.7376 7.2064C4.7376 3.9404 7.25401 1.23499 10.5384 0.757833C10.1998 0.708618 9.85302 0.683105 9.5 0.683105C5.72281 0.683105 2.66077 3.60371 2.66077 7.20643C2.66077 10.8092 5.72281 13.7298 9.5 13.7298C9.85302 13.7298 10.1998 13.7042 10.5384 13.655C7.25404 13.1778 4.7376 10.4724 4.7376 7.2064Z" fill="#D7DDEC"/>
<path id="Vector_2" d="M9.38869 14.4128C5.22264 14.4128 1.83331 11.18 1.83331 7.2064C1.83331 3.23277 5.22264 0 9.38869 0C13.5548 0 16.9441 3.23277 16.9441 7.2064C16.9441 11.18 13.5548 14.4128 9.38869 14.4128ZM9.38869 1.36614C6.0124 1.36614 3.26561 3.98606 3.26561 7.2064C3.26561 10.4267 6.0124 13.0467 9.38869 13.0467C12.765 13.0467 15.5118 10.4267 15.5118 7.2064C15.5118 3.98606 12.765 1.36614 9.38869 1.36614Z" fill="#7B8BB2"/>
<path id="Vector_3" d="M19.4507 17.5003C19.2674 17.5003 19.0841 17.4336 18.9442 17.3003L15.7395 14.2435C15.4598 13.9767 15.4598 13.5442 15.7395 13.2775C16.0192 13.0107 16.4726 13.0107 16.7523 13.2775L19.957 16.3342C20.2367 16.601 20.2367 17.0335 19.957 17.3003C19.8172 17.4336 19.6339 17.5003 19.4507 17.5003Z" fill="#D7DDEC"/>
</g>
</g>
</svg>
