<svg width="16" height="14" viewBox="0 0 16 14" fill="none" xmlns="http://www.w3.org/2000/svg">
<path id="Vector" d="M5.61064 6.98221L5.68168 7.11261H5.83017H11.257C11.3886 7.11261 11.5153 7.08369 11.6304 7.01973L11.6304 7.01974L11.6322 7.01874C11.7388 6.95834 11.828 6.87599 11.9 6.77587L11.9003 6.7761L11.9079 6.76424L14.6936 2.39122H15.0342L12.1851 6.88206C12.0907 7.01961 11.9691 7.12736 11.8169 7.20697C11.6657 7.28566 11.4977 7.32634 11.3085 7.32634H5.46702H5.32835L5.25493 7.44398L4.26679 9.02734C4.20245 9.11495 4.16096 9.2184 4.1583 9.33427C4.15558 9.45293 4.1941 9.56158 4.25177 9.65594C4.37822 9.86284 4.5795 9.96828 4.81924 9.96828H13.4714V10.182H4.81924C4.41252 10.182 4.13916 10.0385 3.95564 9.76731C3.85924 9.62484 3.81905 9.49574 3.8174 9.37667C3.81575 9.25771 3.85226 9.12746 3.94455 8.98211C3.94465 8.98194 3.94475 8.98178 3.94486 8.98162L5.17428 7.06992L5.25454 6.94511L5.18342 6.81487L2.17596 1.30766L2.10487 1.17748H1.95655H0.727768V0.96374H2.33152L5.61064 6.98221ZM8.65687 5.45992C8.57705 5.45992 8.51787 5.43667 8.46627 5.39165C8.41632 5.34806 8.40386 5.31148 8.40386 5.27097C8.40386 5.23043 8.41637 5.19344 8.46655 5.14932C8.51808 5.10446 8.57719 5.0813 8.65687 5.0813C8.73655 5.0813 8.79566 5.10446 8.84718 5.14932C8.89737 5.19343 8.90989 5.23043 8.90989 5.27097C8.90989 5.31148 8.89742 5.34806 8.84747 5.39165C8.79588 5.43667 8.7367 5.45992 8.65687 5.45992ZM8.49792 3.3187V0.25H8.81583V3.3187H8.49792ZM4.81924 13.75C4.52804 13.75 4.29733 13.6648 4.1109 13.5026C3.92666 13.3413 3.84237 13.1551 3.84237 12.9294C3.84237 12.7043 3.92656 12.5182 4.1109 12.3569C4.29738 12.1942 4.52808 12.1088 4.81924 12.1088C5.10974 12.1088 5.3402 12.1941 5.52675 12.3569C5.71175 12.5183 5.7961 12.7045 5.7961 12.9294C5.7961 13.1549 5.71169 13.3412 5.52687 13.5025C5.34034 13.6648 5.10984 13.75 4.81924 13.75ZM12.4945 13.75C12.2039 13.75 11.9734 13.6649 11.7869 13.5025C11.6021 13.3412 11.5176 13.1549 11.5176 12.9294C11.5176 12.7045 11.602 12.5183 11.787 12.3569C11.9735 12.1941 12.204 12.1088 12.4945 12.1088C12.7857 12.1088 13.0164 12.1942 13.2028 12.3569C13.3872 12.5182 13.4714 12.7043 13.4714 12.9294C13.4714 13.155 13.3871 13.3413 13.2029 13.5025C13.0165 13.6648 12.7858 13.75 12.4945 13.75Z" fill="black" stroke="#707070" stroke-width="0.5"/>
</svg>
