<svg width="16" height="14" viewBox="0 0 16 14" fill="none" xmlns="http://www.w3.org/2000/svg">
<g id="solar:bag-cross-linear">
<g id="Group">
<path id="Vector" d="M2.73489 11.9904C3.48545 12.8333 4.88148 12.8333 7.6748 12.8333H8.12513C10.9184 12.8333 12.3151 12.8333 13.0657 11.9904M2.73489 11.9904C1.98434 11.1469 2.24203 9.86708 2.75678 7.30625C3.12268 5.48625 3.30531 4.57567 4.0002 4.03783M13.0657 11.9904C13.8162 11.1469 13.5585 9.86708 13.0438 7.30625C12.6779 5.48625 12.4946 4.57567 11.7997 4.03783M11.7997 4.03783C11.1055 3.5 10.1116 3.5 8.12576 3.5H7.67417C5.68833 3.5 4.69509 3.5 4.0002 4.03783" stroke="#2C2C2C" stroke-width="0.5"/>
<path id="Vector_2" d="M9.15089 7.00008L6.64904 9.33342M6.64904 7.00008L9.15089 9.33342M6.02357 3.50008V2.91675C6.02357 2.45262 6.22126 2.0075 6.57316 1.67931C6.92505 1.35112 7.40231 1.16675 7.89996 1.16675C8.39761 1.16675 8.87488 1.35112 9.22677 1.67931C9.57866 2.0075 9.77635 2.45262 9.77635 2.91675V3.50008" stroke="#2C2C2C" stroke-width="0.5" stroke-linecap="round"/>
</g>
</g>
</svg>
