<svg width="46" height="57" viewBox="0 0 46 57" fill="none" xmlns="http://www.w3.org/2000/svg">
<g id="Group 384">
<g id="Group 383">
<path id="Vector" d="M28.5 1H6.5C5.04131 1 3.64236 1.57946 2.61091 2.61091C1.57946 3.64236 1 5.04131 1 6.5V50.5C1 51.9587 1.57946 53.3576 2.61091 54.3891C3.64236 55.4205 5.04131 56 6.5 56H39.5C40.9587 56 42.3576 55.4205 43.3891 54.3891C44.4205 53.3576 45 51.9587 45 50.5V17.5L28.5 1Z" stroke="#188F71" stroke-width="2" stroke-linecap="round" stroke-linejoin="round"/>
<path id="Vector_2" d="M28.5 1V17.5H45" stroke="#188F71" stroke-width="2" stroke-linecap="round" stroke-linejoin="round"/>
</g>
<path id="Vector_3" d="M34 31.25H12" stroke="#188F71" stroke-width="2" stroke-linecap="round" stroke-linejoin="round"/>
<path id="Vector_4" d="M34 42.25H12" stroke="#188F71" stroke-width="2" stroke-linecap="round" stroke-linejoin="round"/>
<path id="Vector_5" d="M17.5 20.25H14.75H12" stroke="#188F71" stroke-width="2" stroke-linecap="round" stroke-linejoin="round"/>
</g>
</svg>
